<?xml version="1.0" encoding="UTF-8" standalone="no"?>
<svg width="384px" height="384px" viewBox="0 0 384 384" version="1.1" xmlns="http://www.w3.org/2000/svg" xmlns:xlink="http://www.w3.org/1999/xlink" xmlns:sketch="http://www.bohemiancoding.com/sketch/ns">
    <!-- Generator: Sketch 3.3.3 (12081) - http://www.bohemiancoding.com/sketch -->
    <title>gear-a</title>
    <desc>Created with Sketch.</desc>
    <defs></defs>
    <g id="Page-1" stroke="none" stroke-width="1" fill="none" fill-rule="evenodd" sketch:type="MSPage">
        <g id="gear-a" sketch:type="MSLayerGroup" fill="#000000">
            <path d="M347.1,192 C347.1,168.1 361.9,149.2 384,136.2 C380,122.9 374.7,110 368.2,98 C343.3,104.5 323.2,94.8 306.2,77.8 C289.3,60.9 284.1,40.7 290.6,15.8 C278.6,9.3 265.8,4 252.4,0 C239.4,22.2 216,36.9 192,36.9 C168.1,36.9 144.6,22.2 131.6,0 C118.2,4 105.4,9.3 93.4,15.8 C99.9,40.7 94.7,60.8 77.8,77.8 C60.9,94.7 40.7,104.5 15.9,98 C9.3,110 4,122.8 0,136.2 C22.2,149.2 37,168.1 37,192 C37,215.9 22.2,239.4 0,252.4 C4,265.8 9.3,278.6 15.8,290.6 C40.7,284.1 60.8,289.3 77.7,306.2 C94.7,323.1 99.8,343.3 93.3,368.2 C105.4,374.7 118.1,380 131.5,384 C144.5,361.8 168,347.1 191.9,347.1 C215.8,347.1 239.3,361.8 252.3,384 C265.7,380 278.5,374.7 290.5,368.2 C284,343.3 289.2,323.2 306.1,306.2 C323,289.3 343.2,279.5 368.1,286 C374.6,273.9 379.9,261.1 383.9,247.8 C361.8,234.8 347.1,215.9 347.1,192 Z M192,334.08125 C113.660186,334.08125 49.91875,270.484353 49.91875,192 C49.91875,113.515647 113.515647,49.91875 192,49.91875 C270.484353,49.91875 334.08125,113.515647 334.08125,192 C334.08125,270.484353 270.484353,334.08125 192,334.08125 Z" id="Shape" sketch:type="MSShapeGroup"></path>
        </g>
    </g>
</svg>